<?xml version="1.0" standalone="no"?>
<!DOCTYPE svg PUBLIC "-//W3C//DTD SVG 20010904//EN"
 "http://www.w3.org/TR/2001/REC-SVG-20010904/DTD/svg10.dtd">
<svg version="1.0" xmlns="http://www.w3.org/2000/svg"
 width="512.000000pt" height="512.000000pt" viewBox="0 0 512.000000 512.000000"
 preserveAspectRatio="xMidYMid meet">
<metadata>
Created by potrace 1.16, written by Peter Selinger 2001-2019
</metadata>
<g transform="translate(0.000000,512.000000) scale(0.100000,-0.100000)"
fill="#000000" stroke="none">
<path d="M1930 5113 c-243 -25 -535 -126 -900 -308 l-105 -53 -30 50 c-57 94
-148 142 -270 142 -130 0 -226 -59 -282 -172 l-28 -57 0 -1588 0 -1589 28 -24
c34 -29 66 -31 101 -3 l26 20 0 1562 c0 1502 1 1564 19 1603 27 58 72 88 137
89 59 0 94 -20 132 -75 l22 -33 0 -2199 c0 -2460 7 -2243 -71 -2295 -33 -22
-47 -25 -94 -21 -46 4 -61 10 -90 38 -20 19 -40 50 -45 70 -6 21 -10 230 -10
512 0 465 -1 479 -20 498 -26 26 -80 26 -111 1 l-24 -19 0 -514 0 -513 24 -53
c30 -66 113 -144 177 -166 26 -9 80 -16 119 -16 122 0 227 67 279 179 21 45
21 58 26 886 l5 839 275 128 c294 136 426 185 585 217 267 53 492 54 757 0
160 -32 310 -87 517 -189 203 -100 288 -136 407 -170 201 -58 361 -81 575 -81
266 0 387 23 498 97 109 72 184 173 227 304 18 52 19 119 22 1098 2 682 -1
1063 -8 1099 -14 76 -46 137 -98 185 -88 81 -174 99 -347 73 -244 -36 -462
-31 -697 17 l-108 22 -27 -20 c-21 -16 -29 -31 -31 -60 -5 -62 21 -79 158
-104 63 -12 125 -23 138 -26 l22 -4 0 -339 0 -338 -62 10 c-199 30 -349 86
-655 246 l-222 116 -1 318 c0 174 2 317 4 317 2 0 82 -38 177 -85 184 -90 230
-102 262 -67 30 33 32 75 5 106 -21 24 -223 123 -451 220 -107 46 -276 90
-426 110 -102 15 -409 20 -511 9z m492 -169 c59 -8 147 -25 195 -37 l88 -23 3
-320 2 -321 -67 19 c-215 60 -522 79 -742 44 -58 -9 -108 -16 -113 -16 -4 0
-8 143 -8 319 l0 318 78 13 c183 30 366 31 564 4z m-802 -383 l0 -318 -62 -23
c-35 -12 -185 -80 -334 -151 -149 -71 -274 -129 -278 -129 -3 0 -5 145 -4 322
l3 322 245 118 c224 107 386 176 418 177 9 1 12 -69 12 -318z m2925 -60 c95
-43 104 -76 105 -379 0 -185 -3 -244 -12 -247 -7 -2 -139 -18 -293 -34 -154
-17 -301 -33 -327 -36 l-48 -6 0 339 0 339 153 7 c83 4 190 13 237 20 118 18
139 18 185 -3z m-2115 -357 c85 -15 201 -43 253 -63 l27 -11 0 -359 0 -360
-39 14 c-71 25 -234 54 -366 65 -139 12 -263 7 -412 -16 -51 -8 -97 -14 -103
-14 -7 0 -10 124 -10 359 l0 359 43 10 c41 10 161 28 242 36 68 6 276 -5 365
-20z m-810 -432 l0 -359 -86 -32 c-47 -18 -196 -86 -332 -152 -136 -65 -250
-119 -254 -119 -5 0 -8 159 -8 353 l1 352 277 133 c228 109 385 180 400 182 1
0 2 -161 2 -358z m1448 188 c253 -134 464 -211 650 -235 26 -3 57 -8 70 -11
l22 -4 0 -364 0 -363 -57 9 c-179 27 -341 84 -543 188 -74 39 -181 94 -237
122 l-103 53 0 352 c0 194 2 353 5 353 3 0 89 -45 193 -100z m1580 -552 l-3
-363 -55 -6 c-30 -4 -163 -18 -295 -33 -132 -14 -259 -28 -282 -31 l-43 -5 0
365 c0 201 1 365 3 366 10 4 602 67 635 68 l42 1 -2 -362z m-2223 -93 c86 -14
201 -43 258 -64 l27 -11 0 -401 c0 -360 -2 -401 -16 -395 -41 16 -222 47 -334
57 -169 16 -399 4 -552 -27 l-28 -6 0 411 c0 382 1 410 18 415 158 45 426 54
627 21z m-805 -479 l0 -404 -67 -23 c-86 -28 -221 -85 -440 -188 l-173 -80 0
392 0 392 278 133 c227 109 385 180 400 182 1 0 2 -182 2 -404z m1438 240
c271 -144 415 -198 635 -236 60 -10 110 -20 113 -23 2 -2 3 -177 2 -389 l-3
-385 -113 23 c-165 33 -312 86 -522 189 -102 51 -211 102 -242 114 l-58 23 0
389 c0 214 2 389 5 389 3 0 85 -42 183 -94z m1592 -428 c0 -256 -11 -339 -54
-412 -52 -89 -143 -158 -244 -185 -55 -15 -274 -31 -335 -24 l-47 6 2 391 3
391 295 31 c162 17 314 32 338 33 l42 1 0 -232z"/>
</g>
</svg>
