<?xml version="1.0" standalone="no"?>
<!DOCTYPE svg PUBLIC "-//W3C//DTD SVG 20010904//EN"
 "http://www.w3.org/TR/2001/REC-SVG-20010904/DTD/svg10.dtd">
<svg version="1.0" xmlns="http://www.w3.org/2000/svg"
 width="512.000000pt" height="512.000000pt" viewBox="0 0 512.000000 512.000000"
 preserveAspectRatio="xMidYMid meet">
<metadata>
Created by potrace 1.16, written by Peter Selinger 2001-2019
</metadata>
<g transform="translate(0.000000,512.000000) scale(0.100000,-0.100000)"
fill="#000000" stroke="none">
<path d="M1588 5103 c-26 -31 -28 -53 -13 -116 21 -84 33 -104 67 -116 53 -19
107 17 108 70 0 46 -39 158 -60 169 -30 16 -85 12 -102 -7z"/>
<path d="M2725 5100 c-22 -25 -57 -148 -49 -175 11 -36 36 -55 71 -55 55 0 71
15 93 86 25 83 25 119 0 144 -27 27 -90 27 -115 0z"/>
<path d="M1364 4950 c-12 -5 -29 -19 -38 -32 -29 -41 -20 -67 47 -135 70 -70
96 -77 141 -42 20 16 26 29 26 60 0 32 -7 48 -42 86 -34 37 -94 76 -110 72 -2
0 -13 -4 -24 -9z"/>
<path d="M2937 4892 c-44 -44 -57 -64 -57 -88 0 -63 60 -100 117 -70 16 8 48
35 71 60 33 36 42 53 42 81 0 47 -29 75 -78 75 -33 0 -45 -8 -95 -58z"/>
<path d="M2066 4753 c-195 -41 -364 -161 -465 -327 -18 -31 -47 -95 -64 -143
-29 -82 -31 -97 -31 -223 0 -117 4 -145 26 -212 49 -147 142 -278 259 -364
l49 -36 0 -109 c0 -103 1 -111 25 -134 15 -16 36 -25 55 -25 19 0 40 9 55 25
l25 24 0 356 c0 393 1 397 63 452 88 78 209 62 269 -35 l23 -37 5 -976 c5
-943 6 -978 24 -998 26 -28 88 -29 116 -1 19 19 20 33 20 353 0 197 4 347 10
369 21 73 102 138 175 138 73 0 154 -65 175 -138 6 -22 10 -172 10 -369 0
-320 1 -334 20 -353 26 -26 80 -26 111 -1 l24 19 5 429 5 430 28 36 c16 21 47
47 69 58 84 43 195 4 237 -83 20 -43 21 -57 21 -450 0 -395 1 -406 21 -432 27
-34 86 -37 115 -5 18 19 19 44 24 323 l5 303 29 41 c32 47 95 82 146 82 52 0
118 -37 148 -83 27 -40 27 -42 32 -265 5 -220 5 -224 29 -243 31 -25 85 -25
112 2 20 20 20 29 17 262 l-3 242 -34 63 c-19 34 -50 77 -70 94 -90 79 -227
107 -336 69 -33 -12 -64 -22 -68 -24 -4 -1 -16 21 -26 50 -37 109 -114 185
-220 219 -68 21 -178 15 -243 -13 -55 -25 -127 -89 -153 -136 l-18 -34 -60 31
c-54 28 -69 31 -151 31 -73 0 -101 -4 -138 -22 l-48 -22 0 227 0 227 53 29
c28 16 91 68 138 115 72 72 94 102 133 181 62 126 79 213 73 355 -9 175 -66
317 -179 439 -172 188 -429 272 -672 219z m255 -157 c251 -53 439 -284 439
-536 0 -144 -52 -269 -156 -380 -37 -38 -70 -70 -74 -70 -5 0 -10 89 -12 198
-3 186 -5 200 -28 247 -33 67 -99 131 -168 163 -48 22 -71 27 -142 26 -72 0
-94 -4 -142 -27 -72 -35 -134 -97 -167 -167 -24 -51 -26 -69 -31 -224 l-5
-170 -40 46 c-23 25 -53 69 -68 96 -34 63 -67 189 -67 256 1 207 126 405 312
495 124 60 224 73 349 47z"/>
<path d="M1161 4674 c-45 -57 -14 -112 77 -138 32 -9 72 -16 88 -16 62 0 97
81 57 128 -21 24 -110 52 -164 52 -29 0 -42 -6 -58 -26z"/>
<path d="M3130 4689 c-83 -23 -110 -47 -110 -98 0 -35 39 -71 77 -71 53 0 146
29 166 52 23 27 22 69 -4 102 -22 28 -62 33 -129 15z"/>
<path d="M1865 2975 l-25 -24 -1 -358 0 -358 -58 122 c-41 85 -72 135 -104
167 -144 143 -375 150 -523 14 -55 -51 -85 -95 -107 -162 -21 -62 -22 -180 -2
-237 34 -96 319 -705 337 -721 46 -41 128 -5 128 56 0 21 -56 154 -156 372
-172 371 -182 405 -150 489 23 60 92 120 156 135 41 10 58 9 105 -5 94 -27
113 -54 259 -373 72 -156 136 -288 144 -295 26 -21 92 -14 113 12 18 22 19 49
19 583 l0 559 -25 24 c-15 16 -36 25 -55 25 -19 0 -40 -9 -55 -25z"/>
<path d="M3985 1941 c-49 -21 -50 -24 -56 -375 -5 -303 -8 -337 -28 -406 -33
-112 -84 -209 -161 -312 l-70 -92 0 -356 c0 -345 1 -357 20 -378 31 -33 92
-30 119 4 20 26 21 38 21 349 l0 322 46 58 c93 121 163 273 195 430 16 76 19
137 19 401 0 283 -2 314 -17 332 -21 25 -60 35 -88 23z"/>
<path d="M1527 1238 c-32 -25 -38 -64 -18 -116 44 -109 107 -232 158 -311 60
-92 180 -217 260 -271 l52 -35 1 -232 c0 -219 1 -234 20 -253 28 -28 90 -27
116 1 17 19 19 42 22 258 4 326 9 308 -91 377 -160 112 -239 212 -347 439 -38
78 -76 145 -85 149 -27 10 -70 7 -88 -6z"/>
</g>
</svg>
