<?xml version="1.0" standalone="no"?>
<!DOCTYPE svg PUBLIC "-//W3C//DTD SVG 20010904//EN"
 "http://www.w3.org/TR/2001/REC-SVG-20010904/DTD/svg10.dtd">
<svg version="1.0" xmlns="http://www.w3.org/2000/svg"
 width="512.000000pt" height="512.000000pt" viewBox="0 0 512.000000 512.000000"
 preserveAspectRatio="xMidYMid meet">
<metadata>
Created by potrace 1.16, written by Peter Selinger 2001-2019
</metadata>
<g transform="translate(0.000000,512.000000) scale(0.100000,-0.100000)"
fill="#000000" stroke="none">
<path d="M26 4599 l-26 -20 0 -844 c0 -969 -10 -879 100 -895 36 -6 80 -12 98
-15 l32 -6 0 -1139 0 -1139 26 -20 c25 -20 40 -21 209 -21 177 0 182 1 203 23
l22 23 0 1110 0 1110 188 -18 c1094 -104 2270 -104 3365 0 l187 18 0 -353 c0
-340 1 -354 20 -373 30 -30 83 -30 115 1 19 19 20 35 23 377 1 196 6 360 10
363 4 4 35 10 69 13 l63 7 0 -1071 0 -1070 -70 0 -70 0 -2 611 -3 611 -24 19
c-31 25 -81 24 -109 -1 l-22 -21 0 -668 0 -668 23 -21 c22 -21 32 -22 206 -22
180 0 182 0 206 25 l25 24 0 1135 0 1135 33 6 c17 3 61 9 97 15 110 16 100
-75 98 898 l-3 845 -27 20 -28 21 -297 -37 c-846 -106 -1508 -143 -2393 -134
-539 5 -870 20 -1288 57 -284 25 -334 26 -355 2 -45 -50 -19 -126 46 -137 62
-10 495 -45 757 -60 459 -26 861 -34 1355 -24 659 12 1232 52 1848 127 l227
28 0 -726 0 -727 -260 -32 c-1419 -174 -2861 -174 -4280 0 l-260 32 0 727 0
727 177 -23 c98 -13 188 -21 201 -17 50 12 70 95 33 132 -23 23 -23 23 -280
56 -234 30 -232 30 -265 4z m497 -1816 c4 -2 7 -481 7 -1064 l0 -1059 -70 0
-70 0 0 1070 0 1071 63 -7 c34 -4 65 -9 70 -11z"/>
<path d="M3896 4039 c-267 -31 -277 -35 -279 -103 -2 -60 29 -81 111 -79 37 1
82 5 100 8 l32 6 0 -305 0 -305 26 -20 c45 -36 105 -20 124 32 6 18 10 144 10
322 l0 292 91 12 c101 13 123 21 140 52 15 29 3 85 -24 104 -27 19 -43 18
-331 -16z"/>
<path d="M1007 4036 c-64 -23 -109 -69 -132 -135 -52 -150 49 -309 216 -341
93 -18 146 -98 98 -149 -20 -22 -27 -23 -83 -17 -173 19 -190 19 -214 0 -31
-26 -39 -83 -15 -112 14 -18 37 -26 108 -37 130 -21 210 -19 262 6 143 69 166
268 44 389 -44 44 -87 63 -182 84 -54 12 -95 77 -78 124 13 35 40 43 121 32
40 -5 96 -10 125 -10 44 0 55 4 72 26 26 33 27 74 3 104 -14 17 -37 24 -122
35 -130 18 -175 18 -223 1z"/>
<path d="M1522 3977 c-22 -23 -30 -80 -14 -103 15 -23 54 -34 141 -41 l91 -6
0 -304 c0 -179 4 -312 10 -323 13 -25 65 -41 94 -30 54 20 56 30 56 351 l0
296 93 -5 c83 -4 95 -2 120 18 36 29 37 81 2 115 -13 14 -32 25 -42 25 -10 0
-117 7 -238 15 -292 19 -287 19 -313 -8z"/>
<path d="M3058 3971 c-139 -10 -128 24 -128 -412 l0 -368 26 -20 c15 -12 37
-21 50 -21 68 0 84 35 84 185 0 130 0 130 75 96 57 -26 101 -79 114 -141 6
-28 11 -57 11 -64 0 -23 45 -56 77 -56 17 0 41 9 54 19 21 17 24 27 22 84 -1
70 -38 170 -74 203 -26 23 -24 36 11 69 42 41 65 107 65 190 -1 75 -16 117
-64 168 -61 67 -134 82 -323 68z m201 -175 c5 -4 15 -22 21 -40 9 -27 8 -42
-4 -69 -19 -47 -49 -64 -123 -70 l-63 -5 0 98 0 99 53 3 c50 3 95 -4 116 -16z"/>
<path d="M2420 3951 c-76 -24 -127 -70 -159 -141 -19 -42 -21 -65 -21 -328 0
-166 4 -291 10 -302 14 -26 64 -41 99 -29 42 15 51 46 51 179 l0 120 95 0 95
0 0 -128 c0 -96 4 -133 15 -149 32 -46 113 -36 135 16 8 20 10 114 8 307 -3
252 -5 283 -22 318 -25 50 -73 97 -122 121 -42 20 -144 29 -184 16z m139 -185
c18 -19 24 -38 28 -90 l6 -66 -97 0 -96 0 0 55 c0 68 16 104 55 121 37 17 73
10 104 -20z"/>
</g>
</svg>
