<?xml version="1.0" standalone="no"?>
<!DOCTYPE svg PUBLIC "-//W3C//DTD SVG 20010904//EN"
 "http://www.w3.org/TR/2001/REC-SVG-20010904/DTD/svg10.dtd">
<svg version="1.0" xmlns="http://www.w3.org/2000/svg"
 width="512.000000pt" height="512.000000pt" viewBox="0 0 512.000000 512.000000"
 preserveAspectRatio="xMidYMid meet">
<metadata>
Created by potrace 1.16, written by Peter Selinger 2001-2019
</metadata>
<g transform="translate(0.000000,512.000000) scale(0.100000,-0.100000)"
fill="#000000" stroke="none">
<path d="M1590 5113 c-14 -2 -74 -13 -135 -24 -625 -116 -1152 -574 -1361
-1184 -62 -179 -85 -316 -91 -529 -6 -199 3 -304 38 -456 113 -495 429 -919
869 -1169 276 -157 566 -233 885 -232 350 0 636 76 933 247 l33 19 31 -35 c18
-19 363 -397 769 -840 787 -861 775 -849 909 -891 84 -26 216 -26 302 1 121
37 239 134 293 240 45 88 58 155 53 264 -6 111 -24 173 -79 258 -23 36 -282
278 -866 811 -458 417 -833 764 -833 769 0 5 15 36 34 67 127 217 208 496 226
774 59 941 -604 1761 -1538 1902 -94 14 -403 19 -472 8z m476 -223 c327 -56
623 -209 859 -445 498 -498 614 -1247 288 -1865 -211 -402 -591 -700 -1028
-809 -134 -33 -233 -44 -385 -44 -610 0 -1155 342 -1433 898 -177 354 -207
797 -81 1186 45 139 133 315 219 434 84 118 250 284 367 368 188 135 430 237
657 277 151 26 382 26 537 0z m1193 -2752 c25 -23 74 -67 107 -99 l62 -56
-147 -146 -146 -146 -95 106 c-52 58 -95 109 -95 112 0 4 32 36 71 72 39 35
98 94 130 131 32 37 61 67 63 68 2 0 25 -19 50 -42z m983 -896 c558 -508 610
-558 638 -614 43 -86 42 -170 -1 -256 -35 -70 -71 -105 -147 -140 -45 -20 -65
-23 -125 -20 -132 7 -106 -17 -749 688 l-578 634 152 153 152 152 25 -22 c15
-12 300 -271 633 -575z"/>
<path d="M1595 4705 c-691 -107 -1194 -692 -1195 -1388 -1 -681 488 -1263
1163 -1384 121 -21 352 -21 472 0 136 24 259 63 370 116 412 197 695 567 781
1021 38 201 19 481 -47 679 -67 206 -223 464 -297 492 -36 14 -99 -7 -119 -38
-32 -48 -21 -93 39 -177 408 -558 270 -1325 -307 -1707 -126 -84 -289 -148
-456 -180 -81 -15 -303 -15 -392 0 -249 42 -499 178 -675 366 -543 581 -374
1517 338 1878 216 109 487 151 715 111 153 -26 179 -28 212 -11 61 32 68 128
13 169 -70 52 -426 83 -615 53z"/>
<path d="M2437 4482 c-21 -22 -27 -38 -27 -74 0 -64 34 -98 100 -98 38 0 53 5
74 26 21 21 26 36 26 74 0 66 -34 100 -99 100 -39 0 -52 -5 -74 -28z"/>
<path d="M1441 4083 c-24 -25 -39 -73 -120 -400 l-93 -373 -182 0 -182 0 -27
-28 c-38 -39 -38 -108 -1 -145 34 -34 84 -40 321 -35 252 4 235 -11 303 268
23 96 46 178 49 182 4 4 28 -80 55 -187 29 -116 56 -205 68 -220 23 -29 74
-45 148 -45 l55 0 89 -267 c105 -317 116 -332 211 -323 49 4 70 48 161 323
l89 267 150 0 c183 0 218 5 250 38 36 36 36 109 -1 146 l-27 26 -244 0 -245 0
-27 -28 c-20 -20 -42 -69 -77 -175 -27 -81 -51 -147 -54 -147 -3 0 -28 68 -55
151 -62 189 -71 199 -183 199 l-77 0 -89 358 c-49 196 -95 369 -102 384 -32
64 -115 79 -163 31z"/>
</g>
</svg>
