<?xml version="1.0" standalone="no"?>
<!DOCTYPE svg PUBLIC "-//W3C//DTD SVG 20010904//EN"
 "http://www.w3.org/TR/2001/REC-SVG-20010904/DTD/svg10.dtd">
<svg version="1.0" xmlns="http://www.w3.org/2000/svg"
 width="512.000000pt" height="512.000000pt" viewBox="0 0 512.000000 512.000000"
 preserveAspectRatio="xMidYMid meet">
<metadata>
Created by potrace 1.16, written by Peter Selinger 2001-2019
</metadata>
<g transform="translate(0.000000,512.000000) scale(0.100000,-0.100000)"
fill="#000000" stroke="none">
<path d="M2727 5109 c-58 -14 -141 -56 -197 -100 l-49 -39 -680 0 c-659 0
-682 -1 -735 -20 -111 -42 -190 -125 -226 -239 -20 -62 -20 -90 -20 -1690 l0
-1628 23 -21 c34 -32 89 -30 116 4 l21 27 0 1617 0 1616 28 55 c33 66 86 105
161 119 32 6 286 10 631 10 l577 0 -18 -52 c-10 -29 -18 -63 -19 -75 l0 -23
-590 0 -589 0 -21 -22 c-20 -22 -20 -25 -20 -1735 l0 -1713 -430 0 c-429 0
-429 0 -450 -22 -25 -27 -26 -85 -5 -177 44 -183 207 -349 385 -390 25 -6 80
-11 123 -11 l77 0 0 -139 c0 -111 4 -152 20 -202 36 -114 115 -197 226 -239
54 -20 70 -20 1794 -20 1735 0 1739 0 1795 21 110 41 196 134 229 248 14 49
16 271 16 2217 0 2136 0 2163 -20 2225 -36 114 -115 197 -226 239 -53 19 -76
20 -738 20 -627 0 -685 1 -697 17 -27 32 -133 94 -197 113 -69 22 -222 26
-295 9z m301 -189 c74 -39 135 -103 170 -180 25 -53 26 -64 30 -265 4 -260 2
-255 127 -255 108 0 181 -15 228 -46 34 -22 77 -76 77 -96 0 -5 -360 -8 -800
-8 -440 0 -800 3 -800 8 0 20 43 74 77 96 47 31 120 46 228 46 122 0 119 -7
126 254 5 200 6 214 31 266 46 98 122 168 226 207 24 9 68 12 127 10 80 -3 97
-7 153 -37z m1523 -110 c75 -14 128 -53 162 -119 l27 -55 0 -2151 0 -2151 -28
-55 c-33 -66 -86 -105 -161 -119 -74 -14 -3308 -14 -3382 0 -75 14 -128 53
-162 119 -25 51 -27 62 -27 188 l0 133 1588 0 c1737 0 1642 -3 1756 58 73 39
177 145 215 220 64 127 61 11 61 1966 l0 1780 -22 23 -21 23 -589 0 -588 0 0
23 c-1 12 -9 46 -19 75 l-18 52 577 0 c345 0 599 -4 631 -10z m-2221 -365 l0
-75 -75 0 c-169 0 -305 -99 -355 -259 -27 -84 -26 -138 2 -168 l21 -23 938 0
938 0 20 26 c27 34 27 83 1 165 -50 160 -186 259 -355 259 l-75 0 0 75 0 75
525 0 525 0 -2 -1742 -3 -1743 -26 -55 c-37 -77 -97 -141 -171 -181 -60 -33
-67 -34 -168 -34 -101 0 -108 1 -168 34 -113 61 -186 170 -199 294 -4 42 -12
69 -26 85 l-20 22 -1189 0 -1188 0 0 1660 0 1660 525 0 525 0 0 -75z m1224
-3438 c8 -55 53 -148 99 -209 l37 -48 -1458 0 c-899 0 -1483 4 -1525 10 -126
18 -232 94 -287 203 -16 33 -30 66 -30 74 0 11 266 13 1579 13 l1579 0 6 -43z"/>
<path d="M2752 4799 c-149 -76 -162 -296 -23 -394 40 -28 49 -30 131 -30 82 0
91 2 131 30 129 91 129 289 0 380 -37 26 -53 30 -119 33 -63 2 -85 -1 -120
-19z"/>
<path d="M3454 3258 l-133 -132 -60 57 c-46 44 -66 57 -91 57 -42 0 -80 -39
-80 -81 0 -28 14 -47 98 -131 139 -139 122 -142 339 75 153 153 173 176 173
205 0 44 -38 82 -81 82 -28 0 -50 -18 -165 -132z"/>
<path d="M1905 3215 c-16 -15 -25 -36 -25 -55 0 -19 9 -40 25 -55 l24 -25 486
0 486 0 24 25 c16 15 25 36 25 55 0 19 -9 40 -25 55 l-24 25 -486 0 -486 0
-24 -25z"/>
<path d="M3454 2658 l-133 -132 -60 57 c-46 44 -66 57 -91 57 -42 0 -80 -39
-80 -81 0 -28 14 -47 98 -131 139 -139 122 -142 339 75 153 153 173 176 173
205 0 44 -38 82 -81 82 -28 0 -50 -18 -165 -132z"/>
<path d="M1905 2615 c-16 -15 -25 -36 -25 -55 0 -19 9 -40 25 -55 l24 -25 486
0 486 0 24 25 c16 15 25 36 25 55 0 19 -9 40 -25 55 l-24 25 -486 0 -486 0
-24 -25z"/>
<path d="M3454 2058 l-133 -132 -60 57 c-46 44 -66 57 -91 57 -42 0 -80 -39
-80 -81 0 -28 14 -47 98 -131 139 -139 122 -142 339 75 153 153 173 176 173
205 0 44 -38 82 -81 82 -28 0 -50 -18 -165 -132z"/>
<path d="M1905 2015 c-16 -15 -25 -36 -25 -55 0 -19 9 -40 25 -55 l24 -25 486
0 486 0 24 25 c16 15 25 36 25 55 0 19 -9 40 -25 55 l-24 25 -486 0 -486 0
-24 -25z"/>
</g>
</svg>
